<mxfile host="app.diagrams.net" agent="Mozilla/5.0 (X11; Linux x86_64; rv:128.0) Gecko/20100101 Firefox/128.0" version="26.0.11">
  <diagram name="第 1 页" id="gGpswHweAQ974t_NMHlJ">
    <mxGraphModel dx="1234" dy="411" grid="1" gridSize="10" guides="1" tooltips="1" connect="1" arrows="1" fold="1" page="1" pageScale="1" pageWidth="827" pageHeight="1169" math="1" shadow="0">
      <root>
        <mxCell id="0" />
        <mxCell id="1" parent="0" />
        <mxCell id="n9flLxlAuWIXD72aUnGQ-43" value="" style="rounded=1;whiteSpace=wrap;html=1;fillColor=none;" parent="1" vertex="1">
          <mxGeometry x="130" y="190" width="780" height="310" as="geometry" />
        </mxCell>
        <mxCell id="n9flLxlAuWIXD72aUnGQ-1" value="" style="rounded=0;whiteSpace=wrap;html=1;fillColor=none;" parent="1" vertex="1">
          <mxGeometry x="490.5" y="441" width="90" height="40" as="geometry" />
        </mxCell>
        <mxCell id="n9flLxlAuWIXD72aUnGQ-2" style="edgeStyle=orthogonalEdgeStyle;rounded=0;orthogonalLoop=1;jettySize=auto;html=1;exitX=1;exitY=0.5;exitDx=0;exitDy=0;entryX=0;entryY=0.5;entryDx=0;entryDy=0;" parent="1" source="n9flLxlAuWIXD72aUnGQ-4" target="n9flLxlAuWIXD72aUnGQ-7" edge="1">
          <mxGeometry relative="1" as="geometry" />
        </mxCell>
        <mxCell id="n9flLxlAuWIXD72aUnGQ-3" style="edgeStyle=orthogonalEdgeStyle;rounded=0;orthogonalLoop=1;jettySize=auto;html=1;exitX=0.5;exitY=1;exitDx=0;exitDy=0;entryX=0.5;entryY=0;entryDx=0;entryDy=0;" parent="1" source="n9flLxlAuWIXD72aUnGQ-4" target="n9flLxlAuWIXD72aUnGQ-14" edge="1">
          <mxGeometry relative="1" as="geometry" />
        </mxCell>
        <mxCell id="n9flLxlAuWIXD72aUnGQ-4" value="&lt;font style=&quot;font-size: 20px;&quot;&gt;FWD 1&lt;/font&gt;" style="rounded=1;whiteSpace=wrap;html=1;fontFamily=Helvetica;" parent="1" vertex="1">
          <mxGeometry x="340" y="210" width="90" height="60" as="geometry" />
        </mxCell>
        <mxCell id="n9flLxlAuWIXD72aUnGQ-5" style="edgeStyle=orthogonalEdgeStyle;rounded=0;orthogonalLoop=1;jettySize=auto;html=1;exitX=1;exitY=0.5;exitDx=0;exitDy=0;entryX=0;entryY=0.5;entryDx=0;entryDy=0;" parent="1" source="n9flLxlAuWIXD72aUnGQ-7" target="n9flLxlAuWIXD72aUnGQ-9" edge="1">
          <mxGeometry relative="1" as="geometry" />
        </mxCell>
        <mxCell id="n9flLxlAuWIXD72aUnGQ-6" style="edgeStyle=orthogonalEdgeStyle;rounded=0;orthogonalLoop=1;jettySize=auto;html=1;exitX=0.5;exitY=1;exitDx=0;exitDy=0;" parent="1" source="n9flLxlAuWIXD72aUnGQ-7" target="n9flLxlAuWIXD72aUnGQ-13" edge="1">
          <mxGeometry relative="1" as="geometry" />
        </mxCell>
        <mxCell id="n9flLxlAuWIXD72aUnGQ-7" value="&lt;font style=&quot;font-size: 20px;&quot;&gt;FWD 2&lt;/font&gt;" style="rounded=1;whiteSpace=wrap;html=1;fontFamily=Helvetica;" parent="1" vertex="1">
          <mxGeometry x="490" y="210" width="90" height="60" as="geometry" />
        </mxCell>
        <mxCell id="n9flLxlAuWIXD72aUnGQ-8" style="edgeStyle=orthogonalEdgeStyle;rounded=0;orthogonalLoop=1;jettySize=auto;html=1;entryX=0.5;entryY=0;entryDx=0;entryDy=0;" parent="1" source="n9flLxlAuWIXD72aUnGQ-9" target="n9flLxlAuWIXD72aUnGQ-11" edge="1">
          <mxGeometry relative="1" as="geometry" />
        </mxCell>
        <mxCell id="n9flLxlAuWIXD72aUnGQ-9" value="&lt;font style=&quot;font-size: 20px;&quot;&gt;FWD 3&lt;/font&gt;" style="rounded=1;whiteSpace=wrap;html=1;fontFamily=Helvetica;" parent="1" vertex="1">
          <mxGeometry x="640" y="210" width="90" height="60" as="geometry" />
        </mxCell>
        <mxCell id="n9flLxlAuWIXD72aUnGQ-10" style="edgeStyle=orthogonalEdgeStyle;rounded=0;orthogonalLoop=1;jettySize=auto;html=1;exitX=0;exitY=0.5;exitDx=0;exitDy=0;" parent="1" source="n9flLxlAuWIXD72aUnGQ-11" target="n9flLxlAuWIXD72aUnGQ-13" edge="1">
          <mxGeometry relative="1" as="geometry" />
        </mxCell>
        <mxCell id="n9flLxlAuWIXD72aUnGQ-11" value="&lt;font style=&quot;font-size: 20px;&quot;&gt;BWD 3&lt;/font&gt;" style="rounded=1;whiteSpace=wrap;html=1;fontFamily=Helvetica;" parent="1" vertex="1">
          <mxGeometry x="640" y="329" width="90" height="60" as="geometry" />
        </mxCell>
        <mxCell id="n9flLxlAuWIXD72aUnGQ-12" style="edgeStyle=orthogonalEdgeStyle;rounded=0;orthogonalLoop=1;jettySize=auto;html=1;exitX=0;exitY=0.5;exitDx=0;exitDy=0;" parent="1" source="n9flLxlAuWIXD72aUnGQ-13" target="n9flLxlAuWIXD72aUnGQ-14" edge="1">
          <mxGeometry relative="1" as="geometry" />
        </mxCell>
        <mxCell id="n9flLxlAuWIXD72aUnGQ-13" value="&lt;font style=&quot;font-size: 20px;&quot;&gt;BWD 2&lt;/font&gt;" style="rounded=1;whiteSpace=wrap;html=1;fontFamily=Helvetica;" parent="1" vertex="1">
          <mxGeometry x="490" y="329" width="90" height="60" as="geometry" />
        </mxCell>
        <mxCell id="n9flLxlAuWIXD72aUnGQ-14" value="&lt;font style=&quot;font-size: 20px;&quot;&gt;BWD 1&lt;/font&gt;" style="rounded=1;whiteSpace=wrap;html=1;fontFamily=Helvetica;" parent="1" vertex="1">
          <mxGeometry x="340" y="329" width="90" height="60" as="geometry" />
        </mxCell>
        <mxCell id="n9flLxlAuWIXD72aUnGQ-15" style="rounded=0;orthogonalLoop=1;jettySize=auto;html=1;exitX=0;exitY=0.5;exitDx=0;exitDy=0;entryX=1;entryY=0.5;entryDx=0;entryDy=0;" parent="1" source="n9flLxlAuWIXD72aUnGQ-16" target="n9flLxlAuWIXD72aUnGQ-11" edge="1">
          <mxGeometry relative="1" as="geometry" />
        </mxCell>
        <mxCell id="n9flLxlAuWIXD72aUnGQ-16" value="&lt;font style=&quot;font-size: 20px;&quot; face=&quot;Comic Sans MS&quot;&gt;&lt;br&gt;&lt;/font&gt;" style="rounded=1;whiteSpace=wrap;html=1;" parent="1" vertex="1">
          <mxGeometry x="810" y="270" width="70" height="60" as="geometry" />
        </mxCell>
        <mxCell id="n9flLxlAuWIXD72aUnGQ-17" value="" style="endArrow=classic;html=1;rounded=0;entryX=0;entryY=0.5;entryDx=0;entryDy=0;exitX=1;exitY=0.5;exitDx=0;exitDy=0;" parent="1" source="n9flLxlAuWIXD72aUnGQ-9" target="n9flLxlAuWIXD72aUnGQ-16" edge="1">
          <mxGeometry width="50" height="50" relative="1" as="geometry">
            <mxPoint x="720" y="390" as="sourcePoint" />
            <mxPoint x="770" y="340" as="targetPoint" />
          </mxGeometry>
        </mxCell>
        <mxCell id="n9flLxlAuWIXD72aUnGQ-18" value="&lt;font style=&quot;font-size: 20px;&quot; face=&quot;Comic Sans MS&quot;&gt;4, 7, 8, 1, 6, 2&lt;/font&gt;" style="text;html=1;strokeColor=none;fillColor=none;align=center;verticalAlign=middle;whiteSpace=wrap;rounded=0;" parent="1" vertex="1">
          <mxGeometry x="760" y="230" width="150" height="40" as="geometry" />
        </mxCell>
        <mxCell id="n9flLxlAuWIXD72aUnGQ-19" value="&lt;font style=&quot;font-size: 18px;&quot; face=&quot;Helvetica&quot;&gt;Prediction&lt;/font&gt;" style="text;html=1;strokeColor=none;fillColor=none;align=center;verticalAlign=middle;whiteSpace=wrap;rounded=0;fontColor=#000000;fontFamily=Lucida Console;" parent="1" vertex="1">
          <mxGeometry x="770" y="214" width="90" height="20" as="geometry" />
        </mxCell>
        <mxCell id="n9flLxlAuWIXD72aUnGQ-20" value="&lt;font style=&quot;font-size: 20px;&quot; face=&quot;Comic Sans MS&quot;&gt;4, 1, 8, 7, 6, 2&lt;/font&gt;" style="text;html=1;strokeColor=none;fillColor=none;align=center;verticalAlign=middle;whiteSpace=wrap;rounded=0;" parent="1" vertex="1">
          <mxGeometry x="750" y="347" width="150" height="40" as="geometry" />
        </mxCell>
        <mxCell id="n9flLxlAuWIXD72aUnGQ-21" value="" style="endArrow=classic;html=1;rounded=0;exitX=0.75;exitY=0;exitDx=0;exitDy=0;entryX=0.75;entryY=1;entryDx=0;entryDy=0;" parent="1" target="n9flLxlAuWIXD72aUnGQ-16" edge="1">
          <mxGeometry width="50" height="50" relative="1" as="geometry">
            <mxPoint x="862.5" y="350" as="sourcePoint" />
            <mxPoint x="790" y="300" as="targetPoint" />
          </mxGeometry>
        </mxCell>
        <mxCell id="n9flLxlAuWIXD72aUnGQ-23" value="" style="group" parent="1" vertex="1" connectable="0">
          <mxGeometry x="141" y="211" width="739" height="289" as="geometry" />
        </mxCell>
        <mxCell id="n9flLxlAuWIXD72aUnGQ-24" value="4" style="rounded=0;whiteSpace=wrap;html=1;fontSize=20;fontFamily=Comic Sans MS;fillColor=#000000;fontColor=#ffffff;" parent="n9flLxlAuWIXD72aUnGQ-23" vertex="1">
          <mxGeometry width="40" height="40" as="geometry" />
        </mxCell>
        <mxCell id="n9flLxlAuWIXD72aUnGQ-25" value="1" style="rounded=0;whiteSpace=wrap;html=1;fontSize=20;fontFamily=Comic Sans MS;fillColor=#000000;fontColor=#ffffff;" parent="n9flLxlAuWIXD72aUnGQ-23" vertex="1">
          <mxGeometry x="50" width="40" height="40" as="geometry" />
        </mxCell>
        <mxCell id="n9flLxlAuWIXD72aUnGQ-26" value="8" style="rounded=0;whiteSpace=wrap;html=1;fontSize=20;fontFamily=Comic Sans MS;fillColor=#000000;fontColor=#ffffff;" parent="n9flLxlAuWIXD72aUnGQ-23" vertex="1">
          <mxGeometry x="100" width="40" height="40" as="geometry" />
        </mxCell>
        <mxCell id="n9flLxlAuWIXD72aUnGQ-27" value="7" style="rounded=0;whiteSpace=wrap;html=1;fontSize=20;fontFamily=Comic Sans MS;fillColor=#000000;fontColor=#ffffff;" parent="n9flLxlAuWIXD72aUnGQ-23" vertex="1">
          <mxGeometry y="50" width="40" height="40" as="geometry" />
        </mxCell>
        <mxCell id="n9flLxlAuWIXD72aUnGQ-28" value="6" style="rounded=0;whiteSpace=wrap;html=1;fontSize=20;fontFamily=Comic Sans MS;fillColor=#000000;fontColor=#ffffff;" parent="n9flLxlAuWIXD72aUnGQ-23" vertex="1">
          <mxGeometry x="50" y="50" width="40" height="40" as="geometry" />
        </mxCell>
        <mxCell id="n9flLxlAuWIXD72aUnGQ-29" value="2" style="rounded=0;whiteSpace=wrap;html=1;fontSize=20;fontFamily=Comic Sans MS;fillColor=#000000;fontColor=#ffffff;" parent="n9flLxlAuWIXD72aUnGQ-23" vertex="1">
          <mxGeometry x="100" y="50" width="40" height="40" as="geometry" />
        </mxCell>
        <mxCell id="n9flLxlAuWIXD72aUnGQ-22" value="&lt;font style=&quot;font-size: 18px;&quot;&gt;Label&lt;/font&gt;" style="text;html=1;strokeColor=none;fillColor=none;align=center;verticalAlign=middle;whiteSpace=wrap;rounded=0;fontColor=#000000;fontFamily=Helvetica;" parent="n9flLxlAuWIXD72aUnGQ-23" vertex="1">
          <mxGeometry x="619" y="177" width="120" height="20" as="geometry" />
        </mxCell>
        <mxCell id="n9flLxlAuWIXD72aUnGQ-44" style="edgeStyle=orthogonalEdgeStyle;rounded=0;orthogonalLoop=1;jettySize=auto;html=1;exitX=0.5;exitY=1;exitDx=0;exitDy=0;" parent="n9flLxlAuWIXD72aUnGQ-23" source="n9flLxlAuWIXD72aUnGQ-22" target="n9flLxlAuWIXD72aUnGQ-22" edge="1">
          <mxGeometry relative="1" as="geometry" />
        </mxCell>
        <mxCell id="n9flLxlAuWIXD72aUnGQ-45" value="$$L$$" style="text;html=1;strokeColor=none;fillColor=none;align=center;verticalAlign=middle;whiteSpace=wrap;rounded=0;fontSize=18;" parent="n9flLxlAuWIXD72aUnGQ-23" vertex="1">
          <mxGeometry x="683" y="73" width="43" height="30" as="geometry" />
        </mxCell>
        <mxCell id="n9flLxlAuWIXD72aUnGQ-30" value="&lt;font style=&quot;font-size: 18px;&quot; face=&quot;Helvetica&quot;&gt;Input&lt;/font&gt;" style="text;html=1;strokeColor=none;fillColor=none;align=center;verticalAlign=middle;whiteSpace=wrap;rounded=0;fontColor=#000000;fontFamily=Lucida Console;" parent="1" vertex="1">
          <mxGeometry x="166" y="321" width="90" height="20" as="geometry" />
        </mxCell>
        <mxCell id="n9flLxlAuWIXD72aUnGQ-31" value="" style="endArrow=classic;html=1;rounded=0;entryX=0;entryY=0.5;entryDx=0;entryDy=0;" parent="1" target="n9flLxlAuWIXD72aUnGQ-4" edge="1">
          <mxGeometry width="50" height="50" relative="1" as="geometry">
            <mxPoint x="290" y="240" as="sourcePoint" />
            <mxPoint x="320" y="130" as="targetPoint" />
          </mxGeometry>
        </mxCell>
        <mxCell id="n9flLxlAuWIXD72aUnGQ-32" value="$$\boldsymbol{\frac{\partial L}{\partial W^{[1]}&lt;br&gt;}}$$" style="text;html=1;strokeColor=none;fillColor=none;align=center;verticalAlign=middle;whiteSpace=wrap;rounded=0;" parent="1" vertex="1">
          <mxGeometry x="336" y="446" width="60" height="30" as="geometry" />
        </mxCell>
        <mxCell id="n9flLxlAuWIXD72aUnGQ-33" value="$$\boldsymbol{\frac{\partial L}{\partial b^{[1]}&lt;br&gt;}}$$" style="text;html=1;strokeColor=none;fillColor=none;align=center;verticalAlign=middle;whiteSpace=wrap;rounded=0;" parent="1" vertex="1">
          <mxGeometry x="381" y="446" width="60" height="30" as="geometry" />
        </mxCell>
        <mxCell id="n9flLxlAuWIXD72aUnGQ-34" value="" style="rounded=0;whiteSpace=wrap;html=1;fillColor=none;" parent="1" vertex="1">
          <mxGeometry x="339.5" y="440" width="90" height="40" as="geometry" />
        </mxCell>
        <mxCell id="n9flLxlAuWIXD72aUnGQ-35" value="$$\boldsymbol{\frac{\partial L}{\partial W^{[2]}&lt;br&gt;}}$$" style="text;html=1;strokeColor=none;fillColor=none;align=center;verticalAlign=middle;whiteSpace=wrap;rounded=0;" parent="1" vertex="1">
          <mxGeometry x="487" y="447" width="60" height="30" as="geometry" />
        </mxCell>
        <mxCell id="n9flLxlAuWIXD72aUnGQ-36" value="$$\boldsymbol{\frac{\partial L}{\partial b^{[2]}&lt;br&gt;}}$$" style="text;html=1;strokeColor=none;fillColor=none;align=center;verticalAlign=middle;whiteSpace=wrap;rounded=0;" parent="1" vertex="1">
          <mxGeometry x="532" y="447" width="60" height="30" as="geometry" />
        </mxCell>
        <mxCell id="n9flLxlAuWIXD72aUnGQ-37" value="" style="rounded=0;whiteSpace=wrap;html=1;fillColor=none;" parent="1" vertex="1">
          <mxGeometry x="640.5" y="442" width="90" height="40" as="geometry" />
        </mxCell>
        <mxCell id="n9flLxlAuWIXD72aUnGQ-38" value="$$\boldsymbol{\frac{\partial L}{\partial W^{[3]}&lt;br&gt;}}$$" style="text;html=1;strokeColor=none;fillColor=none;align=center;verticalAlign=middle;whiteSpace=wrap;rounded=0;" parent="1" vertex="1">
          <mxGeometry x="637" y="448" width="60" height="30" as="geometry" />
        </mxCell>
        <mxCell id="n9flLxlAuWIXD72aUnGQ-39" value="$$\boldsymbol{\frac{\partial L}{\partial b^{[3]}&lt;br&gt;}}$$" style="text;html=1;strokeColor=none;fillColor=none;align=center;verticalAlign=middle;whiteSpace=wrap;rounded=0;" parent="1" vertex="1">
          <mxGeometry x="682" y="448" width="60" height="30" as="geometry" />
        </mxCell>
        <mxCell id="n9flLxlAuWIXD72aUnGQ-40" value="" style="endArrow=classic;html=1;rounded=0;exitX=0.5;exitY=1;exitDx=0;exitDy=0;" parent="1" source="n9flLxlAuWIXD72aUnGQ-14" target="n9flLxlAuWIXD72aUnGQ-34" edge="1">
          <mxGeometry width="50" height="50" relative="1" as="geometry">
            <mxPoint x="230" y="480" as="sourcePoint" />
            <mxPoint x="280" y="430" as="targetPoint" />
          </mxGeometry>
        </mxCell>
        <mxCell id="n9flLxlAuWIXD72aUnGQ-41" value="" style="endArrow=classic;html=1;rounded=0;exitX=0.5;exitY=1;exitDx=0;exitDy=0;entryX=0.5;entryY=0;entryDx=0;entryDy=0;" parent="1" source="n9flLxlAuWIXD72aUnGQ-13" target="n9flLxlAuWIXD72aUnGQ-1" edge="1">
          <mxGeometry width="50" height="50" relative="1" as="geometry">
            <mxPoint x="580" y="640" as="sourcePoint" />
            <mxPoint x="630" y="590" as="targetPoint" />
          </mxGeometry>
        </mxCell>
        <mxCell id="n9flLxlAuWIXD72aUnGQ-42" value="" style="endArrow=classic;html=1;rounded=0;exitX=0.5;exitY=1;exitDx=0;exitDy=0;entryX=0.5;entryY=0;entryDx=0;entryDy=0;" parent="1" source="n9flLxlAuWIXD72aUnGQ-11" target="n9flLxlAuWIXD72aUnGQ-37" edge="1">
          <mxGeometry width="50" height="50" relative="1" as="geometry">
            <mxPoint x="710" y="640" as="sourcePoint" />
            <mxPoint x="760" y="590" as="targetPoint" />
          </mxGeometry>
        </mxCell>
      </root>
    </mxGraphModel>
  </diagram>
</mxfile>
